<?xml version="1.0" encoding="utf-8"?>
<!-- Generator: Adobe Illustrator 22.1.0, SVG Export Plug-In . SVG Version: 6.00 Build 0)  -->
<svg version="1.1" xmlns="http://www.w3.org/2000/svg" xmlns:xlink="http://www.w3.org/1999/xlink" x="0px" y="0px"
	 viewBox="0 0 3710 3710" style="enable-background:new 0 0 3710 3710;" xml:space="preserve">
<style type="text/css">
	.st0{fill:#FFFFFF;}
	.st1{fill:#F4F7FA;}
	.st2{clip-path:url(#SVGID_2_);fill:url(#SVGID_3_);}
	.st3{opacity:0.8;clip-path:url(#SVGID_2_);}
	.st4{fill:#BEB8F2;}
	.st5{fill:url(#SVGID_4_);}
	.st6{opacity:0.5;clip-path:url(#SVGID_6_);}
	.st7{fill:#FCFDFE;}
	.st8{fill:url(#SVGID_7_);}
	.st9{opacity:0.5;clip-path:url(#SVGID_9_);}
	.st10{fill:url(#SVGID_10_);}
	.st11{fill:#D8DEE8;}
	.st12{opacity:0.3;}
	.st13{fill:url(#SVGID_11_);}
	.st14{opacity:0.74;fill:url(#SVGID_12_);}
	.st15{fill:#B19AF3;}
	.st16{opacity:0.74;clip-path:url(#SVGID_14_);}
	.st17{fill:url(#SVGID_15_);}
	.st18{fill:url(#SVGID_16_);}
	.st19{opacity:0.35;fill:#FFFFFF;}
	.st20{fill:url(#SVGID_17_);}
	.st21{fill:url(#SVGID_18_);}
	.st22{fill:url(#SVGID_19_);}
	.st23{fill:url(#SVGID_20_);}
	.st24{fill:url(#SVGID_21_);}
	.st25{fill:url(#SVGID_22_);}
	.st26{opacity:0.3;fill:url(#SVGID_23_);}
	.st27{fill:url(#SVGID_24_);}
	.st28{opacity:0.2;}
	.st29{fill:url(#SVGID_25_);}
	.st30{fill:url(#SVGID_26_);}
	.st31{fill:url(#SVGID_27_);}
	.st32{opacity:0.1;fill:url(#SVGID_28_);}
	.st33{fill:url(#SVGID_29_);}
	.st34{fill:url(#SVGID_30_);}
	.st35{fill:url(#SVGID_31_);}
	.st36{fill:url(#SVGID_32_);}
	.st37{fill:url(#SVGID_33_);}
	.st38{fill:url(#SVGID_34_);}
	.st39{fill:url(#SVGID_35_);}
	.st40{fill:url(#SVGID_36_);}
	.st41{fill:url(#SVGID_37_);}
	.st42{fill:url(#SVGID_38_);}
	.st43{opacity:0.3;fill:url(#SVGID_39_);}
	.st44{fill:url(#SVGID_40_);}
	.st45{fill:url(#SVGID_41_);}
	.st46{fill:url(#SVGID_42_);}
	.st47{fill:url(#SVGID_43_);}
	.st48{opacity:0.3;fill:url(#SVGID_44_);}
	.st49{fill:url(#SVGID_45_);}
	.st50{fill:url(#SVGID_46_);}
	.st51{opacity:0.3;fill:url(#SVGID_47_);}
	.st52{fill:url(#SVGID_48_);}
	.st53{fill:url(#SVGID_49_);}
	.st54{fill:url(#SVGID_50_);}
	.st55{fill:url(#SVGID_51_);}
	.st56{fill:url(#SVGID_52_);}
	.st57{fill:url(#SVGID_53_);}
	.st58{fill:url(#SVGID_54_);}
	.st59{opacity:0.3;fill:url(#SVGID_55_);}
	.st60{fill:url(#SVGID_56_);}
	.st61{fill:url(#SVGID_57_);}
	.st62{fill:url(#SVGID_58_);}
	.st63{fill:#26264F;}
	.st64{fill:url(#SVGID_59_);}
	.st65{opacity:0.3;fill:url(#SVGID_60_);}
	.st66{fill:url(#SVGID_61_);}
	.st67{opacity:0.3;fill:url(#SVGID_62_);}
	.st68{fill:url(#SVGID_63_);}
	.st69{fill:url(#SVGID_64_);}
	.st70{opacity:0.3;fill:#D8DEE8;}
	.st71{fill:url(#SVGID_65_);}
	.st72{fill:url(#SVGID_66_);}
	.st73{fill:url(#SVGID_67_);}
	.st74{fill:url(#SVGID_68_);}
</style>
<g id="Background">
	<g>
		<g>
			<rect class="st0" width="3710" height="3710"/>
		</g>
	</g>
</g>
<g id="Illustration">
	<g>
		<path class="st1" d="M1821.9,416.5c0,0-981.2,59.6-957,614.3c6.9,159-32.7,318.2-149.3,436.9c-73.2,74.5-171,128.8-222.4,221.4
			c-101.7,183-34.7,406.8,21.3,590.3c55.7,182.4,92.2,374.1,200.9,536.5c59.4,88.8,139.7,175.5,227.7,239.5
			c122.1,88.8,278.8,126.7,431,129.1c873.6,13.3,1838.6-48.3,1936.3-1146.5C3408.1,939.8,2758.1,273.6,1821.9,416.5z"/>
		<g>
			<g>
				<defs>
					<path id="SVGID_1_" d="M2017.7,2791.6l290.2,79.3c0,0,95.3-133.9,52.9-258.4c-86.5-254,142-312,234.1-350.7
						c138.8-58.3,235.8-170.1,82.9-272.2c-152.9-102,87.4-316.5,325.2-378.2c232.7-60.4,259.5-508.9-256.1-424.4
						c-307.9,50.5-344.4,352.4-399,500.5s-283.7,99-257.1,305.4c22.7,176.3,116.4,326-8.9,408.7
						C1956.4,2484.3,1913.1,2603.6,2017.7,2791.6z"/>
				</defs>
				<clipPath id="SVGID_2_">
					<use xlink:href="#SVGID_1_"  style="overflow:visible;"/>
				</clipPath>
				
					<linearGradient id="SVGID_3_" gradientUnits="userSpaceOnUse" x1="4949.7988" y1="618.551" x2="4350.9131" y2="2320.6492" gradientTransform="matrix(0.9646 0.2637 -0.2637 0.9646 -1618.5698 -658.8298)">
					<stop  offset="0" style="stop-color:#FFC444"/>
					<stop  offset="0.9964" style="stop-color:#F36F56"/>
				</linearGradient>
				<path class="st2" d="M2017.7,2791.6l290.2,79.3c0,0,95.3-133.9,52.9-258.4c-86.5-254,142-312,234.1-350.7
					c138.8-58.3,220.9-160.1,103.8-272.8c-132.4-127.4,66.5-315.9,304.3-377.6c232.7-60.4,259.5-508.9-256.1-424.4
					c-307.9,50.5-344.4,352.4-399,500.5s-283.7,99-257.1,305.4c22.7,176.3,116.4,326-8.9,408.7
					C1956.4,2484.3,1913.1,2603.6,2017.7,2791.6z"/>
				<g class="st3">
					<path class="st4" d="M2135.9,2852.9l6.3,0.5c0.3-3.9,35.4-396.2,187.4-774.6c140-348.6,410.9-756.4,905.9-719.5l0.5-6.3
						c-220.4-16.4-415.4,52.4-579.6,204.5c-131.2,121.5-243.1,296.2-332.7,519.1C2171.4,2455.9,2136.2,2848.9,2135.9,2852.9z"/>
					<path class="st4" d="M2590.5,1624.1l6.3,0.9c30.1-209.2,185.8-475.6,187.3-478.2l-5.5-3.2
						C2777,1146.2,2620.8,1413.6,2590.5,1624.1z"/>
					<path class="st4" d="M2702.7,1525.7c241.3-72.1,417.2,42.2,418.9,43.4l3.5-5.3c-1.8-1.2-179.9-117.2-424.2-44.2L2702.7,1525.7z
						"/>
					<path class="st4" d="M2243.7,2331.6c147.4-270.1,559.6-233.6,563.6-232.9l1.5-6.2c-3.8-1-421.9-36.5-570.7,236L2243.7,2331.6z"
						/>
					<path class="st4" d="M2275.3,2208.7l6.3,0.4c12.1-196-154.2-378.6-155.8-380.4l-4.7,4.3
						C2122.8,1834.9,2287.2,2015.5,2275.3,2208.7z"/>
					<path class="st4" d="M2149.1,2791.8c39.6-110,224.4-155.1,226.3-155.6l-1.5-6.2c-7.7,1.8-190,46.4-230.8,159.6L2149.1,2791.8z"
						/>
					<path class="st4" d="M2156.2,2698.8l6.3,0.6c9-92-97.1-226.2-131.9-270.3c-4.9-6.2-9.2-11.6-9.7-12.7l-5.7,2.8
						c0.8,1.6,3.6,5.2,10.5,13.8C2060,2476.7,2164.9,2609.4,2156.2,2698.8z"/>
				</g>
			</g>
			<g>
				
					<linearGradient id="SVGID_4_" gradientUnits="userSpaceOnUse" x1="-2047.0684" y1="721.6595" x2="-1416.1982" y2="2379.325" gradientTransform="matrix(-0.9755 0.2199 0.2199 0.9755 127.9268 129.15)">
					<stop  offset="0" style="stop-color:#AA80F9"/>
					<stop  offset="0.9964" style="stop-color:#6165D7"/>
				</linearGradient>
				<path class="st5" d="M2318.6,1664.7c46.8,49.5,37.2,114.8,22.8,160.9c-6.3,1.8-9.4,4.4-15.4,7.7c-53.4,29-82.4,30-139.6,50.3
					c-12.3,4.4-52.3,6.2-68.7,5.9l-30.6-1c0,0-92.9-126.1-27.4-186.6c65.5-60.4-7.5-191.4-37.6-265.6
					c-18.5-45.5-12.4-72.3-16.5-90.1c-43.5-188.7-115.6-227.2-92-297.3c26-77.3,121.2-52.5,153.9-135.1
					c36.9-93.3-59.7-187.6-5-268.1c9.4-13.8,19.4-27.7,38.1-39.7c46.2-29.7,96-12.3,119.9-64.5c48-104.9,158.9-168.9,257.6-102.5
					c97.3,65.5,64.2,259.8-107.1,456.5c-105.9,153.8-97.5,188.6-60.5,268.6c25.9,56.1,133.3,190.9,66.5,275.6
					C2310.2,1524.3,2265.1,1608.2,2318.6,1664.7z"/>
				<g>
					<defs>
						<path id="SVGID_5_" d="M2318.7,1883.2l-225.3,9c0,0-99.1-129.9-33.6-190.4c65.5-60.4-7.5-191.4-37.6-265.6
							c-81.7-201.2,165.4-250.3,82.8-517c-22-70.9-89.6-199-42.4-273.7c53.8-85.1,127.3-37.1,158-104.2
							c48-104.9,158.9-168.9,257.6-102.5c97.3,65.5,64.2,259.8-107.1,456.5c-105.9,153.8-97.5,188.6-60.5,268.6
							c25.9,56.1,133.3,190.9,66.5,275.6s-111.9,168.5-58.5,225.1C2399.9,1750.7,2318.7,1883.2,2318.7,1883.2z"/>
					</defs>
					<clipPath id="SVGID_6_">
						<use xlink:href="#SVGID_5_"  style="overflow:visible;"/>
					</clipPath>
					<g class="st6">
						<path class="st7" d="M2217.5,1877.2l-4.4,0.7c-4.1-24.3-8-48.9-11.4-73.1c-25.4-178.9-31.9-353.9-19.2-519.9
							c10.7-140.7,35.4-277,73.2-405.2c30.4-103.1,69.4-201.4,116.1-292.4c32.8-63.9,68.9-123.5,107.4-177.2
							c6.7-9.4,14.1-18.6,21.3-27.5c9.6-11.9,19.5-24.2,27.7-36.9l3.8,2.1c-8.4,12.9-18.3,25.2-28,37.2
							c-7.1,8.9-14.5,18.1-21.2,27.3c-38.4,53.5-74.4,112.9-107.1,176.7c-46.5,90.7-85.5,188.8-115.8,291.7
							c-37.7,127.9-62.3,264-73,404.4c-12.7,165.8-6.2,340.4,19.2,519.1C2209.6,1828.4,2213.4,1852.9,2217.5,1877.2z"/>
						<path class="st7" d="M2220.9,1038.3l-4.4-0.6c30.4-176.1-126.9-441.4-128.5-444.1l3.9-2.1
							C2093.5,594.2,2251.5,860.8,2220.9,1038.3z"/>
						<path class="st7" d="M2182.3,1537l-4.5-0.1c5.6-121.7,203.1-269.8,205.1-271.3l2.8,3.2
							C2383.7,1270.3,2187.8,1417.3,2182.3,1537z"/>
						<path class="st7" d="M2185.5,1606.2l-4.4,0.6c-11.5-78.6-72.6-179.3-172-283.7c-5-5.2-5-5.2-5.1-6l4.4-0.7l-2.2,0.3l1.9-1.1
							c0.3,0.4,2.2,2.4,4.4,4.7C2112.4,1425.4,2173.9,1526.9,2185.5,1606.2z"/>
						<path class="st7" d="M2210.7,1832.7l-4.4-0.6c14.6-86.7,135.8-153.3,137-154l2.2,3.6C2344.3,1682.4,2224.9,1748,2210.7,1832.7
							z"/>
						<path class="st7" d="M2211.1,1879.3c-36.7-61.3-93.7-114.6-174.2-162.8l2.5-3.5c81.2,48.6,138.7,102.4,175.7,164.3
							L2211.1,1879.3z"/>
						<path class="st7" d="M2349.2,643l-4.4-0.8c22.8-97.1,22.5-203.7,22.4-238.7c0-8.5,0-11.5,0.2-12.5l4.4,0.7
							c-0.1,0.8-0.1,5.6-0.1,11.8C2371.8,438.6,2372.1,545.4,2349.2,643z"/>
						<path class="st7" d="M2287.1,796.2l-3.9-2c49.2-81.6,242.3-133.7,250.5-135.8l1.2,4C2532.9,662.8,2335.4,716.1,2287.1,796.2z"
							/>
					</g>
				</g>
			</g>
			<g>
				
					<linearGradient id="SVGID_7_" gradientUnits="userSpaceOnUse" x1="3427.3313" y1="496.2184" x2="4276.6289" y2="1894.3811" gradientTransform="matrix(-0.9932 0.1164 0.1164 0.9932 6047.0449 -181.409)">
					<stop  offset="0" style="stop-color:#FF9085"/>
					<stop  offset="1" style="stop-color:#FB6FBB"/>
				</linearGradient>
				<path class="st8" d="M2318.6,2316.7c-15.5-0.1-6.8-80.8-63-176.2c-14-23.8-81.6-159.1-194.9-149.7c-22,1.8-44,3.6-66,5.4
					c-24.7-47-39.2-95.8,25-122.5c99.7-41.5,79.5-213.7,43-271.2c-45.1-71.1-146.6-238.8,6.5-305.2
					c127.5-55.3,221.7-66.4,209.6-228.7c-12.1-162.4,67.9-274,224.1-282.7c164.4-9.2,271-229.8,413.7-177.1
					c248.7,91.9,84.8,472.2-184.7,608.5c-269.5,136.4-94.3,213.5-69.2,344.5c1.6,12.3,3.2,31.5,0.8,54.5
					c-14.8,141.7-156.1,182.5-245.7,307.7C2295.6,2094.7,2344.7,2316.9,2318.6,2316.7z"/>
				<g>
					<defs>
						<path id="SVGID_8_" d="M2367.7,1994.1l-355.7,39.3c-26.6-45.2-64-130,7.8-159.8c99.7-41.5,79.5-213.7,43-271.2
							c-45.1-71.1-146.6-238.8,6.5-305.3c127.5-55.3,221.7-66.4,209.6-228.7c-12.1-162.4,67.9-274,224.1-282.7
							c164.4-9.2,271-229.8,413.7-177.1c248.7,91.9,84.8,472.2-184.7,608.5c-269.5,136.4-94.3,213.5-69.2,344.5
							c34.3,178.9-228.9,170.9-287.7,249.7C2329,1873.3,2349.1,1948.7,2367.7,1994.1z"/>
					</defs>
					<clipPath id="SVGID_9_">
						<use xlink:href="#SVGID_8_"  style="overflow:visible;"/>
					</clipPath>
					<g class="st9">
						<path class="st7" d="M2193.6,1959.8l-7.7-0.6c44.1-533.8,362.5-1044.8,831-1333.5l4.2,6.1
							C2554.6,919.4,2237.5,1428.3,2193.6,1959.8z"/>
						<path class="st7" d="M2244.1,1670.7l-7.7,0.9c-26.9-208.9-237.4-349.9-239.5-351.3l4.4-6
							C2003.4,1315.7,2216.7,1458.6,2244.1,1670.7z"/>
						<path class="st7" d="M2204.6,1861.8l-7.2-2.7c82.5-198.6,486.9-271.8,491-272.5l1.4,7.2
							C2685.7,1594.6,2285.5,1667,2204.6,1861.8z"/>
						<path class="st7" d="M2459.4,1186.9l-7.4-2.1c51-162.2-86.2-387.2-87.6-389.4l6.7-3.7C2372.5,794,2511.3,1021.7,2459.4,1186.9
							z"/>
						<path class="st7" d="M2673.5,913.4l-4.8-5.7c159.9-120.1,434.7-95.4,437.5-95.1l-0.8,7.3
							C3102.7,819.6,2830.9,795.2,2673.5,913.4z"/>
					</g>
				</g>
			</g>
		</g>
		<g>
			<linearGradient id="SVGID_10_" gradientUnits="userSpaceOnUse" x1="1069.1641" y1="2027.3159" x2="2441.8362" y2="2027.3159">
				<stop  offset="0" style="stop-color:#444B8C"/>
				<stop  offset="0.9964" style="stop-color:#26264F"/>
			</linearGradient>
			<path class="st10" d="M2394.4,851.2l-854.1-28.4l0,0L1123.3,809c-29.3-1-54.1,21.8-54.1,50.9v2336.8c0,29.1,24.7,50.9,54,48.7
				l1270.8-94.7c26-1.9,47.9-25.7,47.9-53V902.3C2441.8,875,2420.4,852.1,2394.4,851.2z"/>
			<g>
				<path class="st11" d="M2420,851.2L1150,809c-29.3-1-53.1,21.8-53.1,50.9v2336.8c0,29.1,23.8,50.9,53.1,48.7l1270-94.7
					c26-1.9,47.1-25.7,47.1-53V902.3C2467.1,875,2446,852.1,2420,851.2z"/>
				<g class="st12">
					<path class="st11" d="M1901.6,2567.8c-21.6-265.5,140.1-376.8,78.5-616.8c-76.2-296.9-370.1-307.8-470.4-599.7
						c-38.5-112-53.7-281.5,56.4-528.4L1150,809c-29.3-1-53.1,21.8-53.1,50.9v2336.8c0,29.1,23.8,50.9,53.1,48.7l1133.5-84.5
						C1996.8,2941.3,1914.9,2730.9,1901.6,2567.8z"/>
				</g>
				<linearGradient id="SVGID_11_" gradientUnits="userSpaceOnUse" x1="2412.3145" y1="952.0535" x2="1465.5977" y2="2501.2244">
					<stop  offset="0" style="stop-color:#FFFFFF"/>
					<stop  offset="0.9964" style="stop-color:#EBEFF2"/>
				</linearGradient>
				<path class="st13" d="M2420,880.5L1150,840c-12-0.4-21.8,9-21.8,20.9v2333.6c0,11.9,9.8,20.9,21.8,20l1270-92.9
					c10.7-0.8,19.4-10.6,19.4-21.8V901.5C2439.4,890.2,2430.7,880.8,2420,880.5z"/>
				<g>
					<linearGradient id="SVGID_12_" gradientUnits="userSpaceOnUse" x1="1257.3439" y1="2245.7017" x2="2323.5352" y2="2245.7017">
						<stop  offset="0" style="stop-color:#AA80F9"/>
						<stop  offset="0.9964" style="stop-color:#6165D7"/>
					</linearGradient>
					<path class="st14" d="M2278.6,2182.4l-971.8,28.1c-27.2,0.8-49.4,23.5-49.4,50.8l0,0c0,27.2,22.1,48.6,49.4,47.7l971.8-32.4
						c24.9-0.8,45-22.5,45-48.5l0,0C2323.5,2202.1,2303.4,2181.7,2278.6,2182.4z"/>
					<path class="st11" d="M2278.6,2367.8l-795.8,29.9c-26.8,1-48.6,23.7-48.6,50.8l0,0c0,27,21.8,48,48.6,46.9l795.8-33.4
						c24.9-1,45-22.9,45-48.9l0,0C2323.5,2387.2,2303.4,2366.9,2278.6,2367.8z"/>
					<g>
						<path class="st15" d="M1306.7,2502.8L1306.7,2502.8c-27.2,1.1-49.4-20-49.4-47.3l0,0c0-27.2,22.1-50.2,49.4-51.2h0
							c27.2-1,49.1,20.1,49.1,47.3l0,0C1355.8,2478.7,1333.9,2501.7,1306.7,2502.8z"/>
						<path class="st11" d="M1304.6,2514c-15.3,0-29.6-5.7-40.5-16.2c-11.5-11-17.9-26.1-17.9-42.3c0-33.1,26.9-61.1,60.1-62.3
							c16.2-0.6,31.4,5.1,42.9,16.2c11.5,11,17.8,26,17.8,42.2c0,33-26.8,60.9-59.8,62.3l0,0C1306.3,2514,1305.4,2514,1304.6,2514z
							 M1308.6,2415.5c-0.5,0-1,0-1.5,0c-21.3,0.8-38.6,18.8-38.6,40.1c0,10.1,3.9,19.4,11,26.2c7.1,6.8,16.6,10.4,26.8,9.9
							c21.2-0.9,38.5-18.9,38.5-40.1c0-10.1-3.9-19.3-11-26.2C1327,2419,1318.1,2415.5,1308.6,2415.5z"/>
					</g>
					<path class="st11" d="M2278.6,2535.6l-795.8,36.1c-26.8,1.2-48.6,24.1-48.6,51.1l0,0c0,27,21.8,47.9,48.6,46.5l795.8-39.6
						c24.9-1.2,45-23.3,45-49.2l0,0C2323.5,2554.6,2303.4,2534.5,2278.6,2535.6z"/>
					<g>
						<path class="st15" d="M1306.7,2678.2L1306.7,2678.2c-27.2,1.4-49.4-19.6-49.4-46.9l0,0c0-27.2,22.1-50.3,49.4-51.6h0
							c27.2-1.2,49.1,19.8,49.1,46.9l0,0C1355.8,2653.7,1333.9,2676.8,1306.7,2678.2z"/>
						<path class="st11" d="M1304.2,2689.3c-15.1,0-29.2-5.6-40.1-15.9c-11.5-11-17.9-26-17.9-42.2c0-33.1,26.9-61.2,60-62.7
							c16.2-0.7,31.5,4.9,43,15.9c11.5,11,17.8,25.9,17.8,42.1c0,32.9-26.8,61-59.7,62.7C1306.2,2689.3,1305.2,2689.3,1304.2,2689.3
							z M1309,2590.8c-0.6,0-1.2,0-1.8,0c-21.4,1-38.7,19.1-38.7,40.5c0,10.1,3.9,19.3,11,26.1c7.1,6.8,16.6,10.2,26.7,9.7l0,0
							c21.3-1.1,38.6-19.2,38.6-40.4c0-10-3.9-19.3-10.9-26C1327.1,2594.2,1318.4,2590.8,1309,2590.8z"/>
					</g>
					<path class="st11" d="M2278.6,2703.3l-795.8,42.3c-26.8,1.4-48.6,24.5-48.6,51.5l0,0c0,27,21.8,47.7,48.6,46.1l795.8-45.8
						c24.9-1.4,45-23.6,45-49.6l0,0C2323.5,2722,2303.4,2702,2278.6,2703.3z"/>
					<g>
						<path class="st15" d="M1306.7,2853.5L1306.7,2853.5c-27.2,1.6-49.4-19.2-49.4-46.5l0,0c0-27.2,22.1-50.5,49.4-52h0
							c27.2-1.4,49.1,19.4,49.1,46.5l0,0C1355.8,2828.7,1333.9,2851.9,1306.7,2853.5z"/>
						<path class="st11" d="M1303.8,2864.7c-15,0-28.9-5.5-39.7-15.6c-11.6-10.9-17.9-25.9-17.9-42.1c0-33,26.9-61.3,59.9-63.1
							c16.2-0.9,31.5,4.7,43,15.6c11.5,10.9,17.8,25.8,17.8,42c0,32.9-26.8,61.2-59.6,63.1l0,0
							C1306.2,2864.7,1305,2864.7,1303.8,2864.7z M1309.4,2766.1c-0.7,0-1.4,0-2.1,0.1c-21.4,1.1-38.8,19.5-38.8,40.8
							c0,10.1,3.9,19.3,10.9,25.9c7.1,6.7,16.5,10,26.7,9.5l0,0c21.3-1.2,38.7-19.5,38.7-40.8c0-10-3.9-19.2-10.9-25.9
							C1327.3,2769.5,1318.7,2766.1,1309.4,2766.1z"/>
					</g>
					<path class="st11" d="M2278.6,2871.1l-795.8,48.6c-26.8,1.6-48.6,24.9-48.6,51.9l0,0c0,27,21.8,47.5,48.6,45.8l795.8-52
						c24.9-1.6,45-24,45-49.9l0,0C2323.5,2889.4,2303.4,2869.6,2278.6,2871.1z"/>
					<g>
						<path class="st15" d="M1306.7,3028.9L1306.7,3028.9c-27.2,1.8-49.4-18.9-49.4-46.1l0,0c0-27.2,22.1-50.7,49.4-52.3h0
							c27.2-1.7,49.1,19,49.1,46.1l0,0C1355.8,3003.7,1333.9,3027.1,1306.7,3028.9z"/>
						<path class="st11" d="M1303.4,3040.1c-14.8,0-28.6-5.4-39.2-15.3c-11.6-10.8-17.9-25.8-17.9-42c0-33,26.8-61.4,59.8-63.5
							c16.2-1,31.6,4.4,43.1,15.3c11.5,10.8,17.9,25.7,17.9,41.9c0,32.8-26.7,61.3-59.5,63.4l0,0
							C1306.1,3040.1,1304.7,3040.1,1303.4,3040.1z M1309.7,2941.5c-0.8,0-1.6,0-2.4,0.1c-21.5,1.3-38.9,19.8-38.9,41.2
							c0,10,3.9,19.2,10.9,25.8c7.1,6.6,16.5,9.9,26.6,9.2c21.4-1.4,38.7-19.9,38.7-41.2c0-10-3.9-19.1-10.8-25.7
							C1327.4,2944.7,1318.9,2941.5,1309.7,2941.5z"/>
					</g>
				</g>
				<g>
					<path class="st11" d="M1803.4,2054.5c-207.5,4.7-379.3-165.4-379.3-379.1s171.8-385.5,379.3-383
						c203.7,2.5,366.6,172.6,366.6,379.2S2007.1,2049.9,1803.4,2054.5z"/>
					<path class="st0" d="M2145.1,1671.6c0,192.9-151.7,352.5-341.7,356.5c-193.4,4.1-352.7-153.9-352.7-353
						s159.3-358.7,352.7-356.6C1993.4,1320.7,2145.1,1478.8,2145.1,1671.6z"/>
					<g>
						<defs>
							<path id="SVGID_13_" d="M2120.2,1671.8c0,178.8-140.7,326.6-316.8,330.1c-179,3.6-326.2-142.7-326.2-326.8
								c0-184.1,147.2-331.9,326.2-330.2C1979.5,1346.6,2120.2,1493,2120.2,1671.8z"/>
						</defs>
						<clipPath id="SVGID_14_">
							<use xlink:href="#SVGID_13_"  style="overflow:visible;"/>
						</clipPath>
						<g class="st16">
							<linearGradient id="SVGID_15_" gradientUnits="userSpaceOnUse" x1="1802.5483" y1="1612.8267" x2="1772.365" y2="2987.8572">
								<stop  offset="0" style="stop-color:#AA80F9"/>
								<stop  offset="0.9964" style="stop-color:#6165D7"/>
							</linearGradient>
							<path class="st17" d="M1955.6,1591.4c0,85.5-67.6,155.4-151.5,156.1c-84.6,0.7-153.6-69-153.6-155.7
								c0-86.7,69.1-156.6,153.6-156.2C1888,1436.1,1955.6,1505.8,1955.6,1591.4z"/>
							
								<linearGradient id="SVGID_16_" gradientUnits="userSpaceOnUse" x1="1810.9976" y1="1609.0107" x2="1780.2455" y2="3009.9548">
								<stop  offset="0" style="stop-color:#AA80F9"/>
								<stop  offset="0.9964" style="stop-color:#6165D7"/>
							</linearGradient>
							<path class="st18" d="M2061,2060.1c0,0,0,0.4,0,0.2c0-145-114.3-261-257-259.5c-144.5,1.6-263.1,122.8-263.1,271.3
								c0,0.2,0,0,0,0L2061,2060.1z"/>
						</g>
					</g>
				</g>
				<path class="st19" d="M1901.6,2567.8c-21.6-265.5,140.1-376.8,78.5-616.8c-76.2-296.9-370.1-307.8-470.4-599.7
					c-36.9-107.3-52.4-267.6,43.5-498.4L1150,840c-12-0.4-21.8,9-21.8,20.9v2333.6c0,11.9,9.8,20.9,21.8,20l1099.3-80.4
					C1990.2,2924,1914.3,2724.2,1901.6,2567.8z"/>
			</g>
		</g>
		<g>
			<linearGradient id="SVGID_17_" gradientUnits="userSpaceOnUse" x1="1250.6617" y1="2432.6597" x2="1324.2905" y2="2432.6597">
				<stop  offset="0" style="stop-color:#FFC444"/>
				<stop  offset="0.9964" style="stop-color:#F36F56"/>
			</linearGradient>
			<path class="st20" d="M1255.6,2370.8c0,0,62.1,20.9,68.7,123.7c-10.1-0.9-33.8-0.4-33.8-0.4s4.4-74.8-39.8-90
				C1254.2,2395.5,1255.6,2370.8,1255.6,2370.8z"/>
			<linearGradient id="SVGID_18_" gradientUnits="userSpaceOnUse" x1="1133.0187" y1="2582.1953" x2="1150.6927" y2="2319.0515">
				<stop  offset="9.996050e-02" style="stop-color:#311944"/>
				<stop  offset="0.267" style="stop-color:#371B47"/>
				<stop  offset="0.4803" style="stop-color:#462150"/>
				<stop  offset="0.7186" style="stop-color:#612A5F"/>
				<stop  offset="0.9736" style="stop-color:#853774"/>
				<stop  offset="1" style="stop-color:#893976"/>
			</linearGradient>
			<path class="st21" d="M1025.2,2361c1.6,18.9,3.2,37.9,4.7,56.8c31.3-8.1,65.4-17.4,101.9-18.7c47.4-1.7,90.7,4.2,129.1,13.8
				c1.7-2.3,5.3-8,7-17.2c2.7-14.9-1.8-27.4-2.6-29.6c-19.6-7.2-40.8-13.3-63.6-17.6C1136.1,2336,1076.6,2346.3,1025.2,2361z"/>
			<linearGradient id="SVGID_19_" gradientUnits="userSpaceOnUse" x1="1033.9323" y1="2392.6257" x2="1236.0895" y2="2501.0083">
				<stop  offset="9.996050e-02" style="stop-color:#311944"/>
				<stop  offset="0.267" style="stop-color:#371B47"/>
				<stop  offset="0.4803" style="stop-color:#462150"/>
				<stop  offset="0.7186" style="stop-color:#612A5F"/>
				<stop  offset="0.9736" style="stop-color:#853774"/>
				<stop  offset="1" style="stop-color:#893976"/>
			</linearGradient>
			<path class="st22" d="M1022.2,2377.3c0.1-6.8,0.6-15.4,3-16.4c2.2-0.9,5.2,5.3,6.4,8.8c0.5,1.4,1.7,4.9,2.4,16
				c0.9,14.2-0.2,21.2-1.2,25.5c-0.6,2.6-1.5,6.5-2.9,6.6c-1.1,0.1-2.1-2.4-3.6-7.2C1024.4,2404.1,1022,2393.3,1022.2,2377.3z"/>
			<linearGradient id="SVGID_20_" gradientUnits="userSpaceOnUse" x1="964.3997" y1="2438.0564" x2="1029.3705" y2="2438.0564">
				<stop  offset="0" style="stop-color:#FFC444"/>
				<stop  offset="0.9964" style="stop-color:#F36F56"/>
			</linearGradient>
			<path class="st23" d="M964.4,2496.3c13.2,2.6,45.2,10.3,45.2,10.3s-20.8-66.8,18.4-97c1-5,2-13,0.8-22.6c-1-7.4-3-13.4-4.7-17.5
				C1007.5,2378.7,971.1,2409.7,964.4,2496.3z"/>
			<linearGradient id="SVGID_21_" gradientUnits="userSpaceOnUse" x1="746.5984" y1="2730.9812" x2="631.0491" y2="1674.7501">
				<stop  offset="9.996050e-02" style="stop-color:#311944"/>
				<stop  offset="0.6853" style="stop-color:#6D2F66"/>
				<stop  offset="1" style="stop-color:#893976"/>
			</linearGradient>
			<path class="st24" d="M688.9,2511.1c0,0,1.6-35.3,57.6-34.7c8.8,6.5,9.2,35.4,9.2,35.4L688.9,2511.1z"/>
			<linearGradient id="SVGID_22_" gradientUnits="userSpaceOnUse" x1="1249.3376" y1="3169.2612" x2="484.1494" y2="2743.1895">
				<stop  offset="0" style="stop-color:#311944"/>
				<stop  offset="1" style="stop-color:#893976"/>
			</linearGradient>
			<path class="st25" d="M639,3206.9l153.3,90.4l92-341.5l-152-457l-43.4,12.3l-66.1,659.8C621.3,3185.9,627.8,3200.3,639,3206.9z"
				/>
			<linearGradient id="SVGID_23_" gradientUnits="userSpaceOnUse" x1="558.8445" y1="2576.438" x2="789.5916" y2="2963.3833">
				<stop  offset="0" style="stop-color:#311944"/>
				<stop  offset="1" style="stop-color:#893976"/>
			</linearGradient>
			<path class="st26" d="M884.3,2955.8l-152-457l-43.4,12.3c10.7,40.6,15.8,106.5,18.2,143.2c10.3,156.1,44.3,199.4,27.8,308.2
				c-13.7,90.6-43.7,103.2-41.1,164.1c2.9,66.3,41.4,121.2,87.1,164l11.2,6.6L884.3,2955.8z"/>
			<linearGradient id="SVGID_24_" gradientUnits="userSpaceOnUse" x1="1146.7932" y1="2114.8525" x2="1230.9513" y2="3244.3486">
				<stop  offset="9.996050e-02" style="stop-color:#311944"/>
				<stop  offset="0.6853" style="stop-color:#6D2F66"/>
				<stop  offset="1" style="stop-color:#893976"/>
			</linearGradient>
			<polygon class="st27" points="732.3,2498.8 1547.5,2507.3 1671.4,3209.4 792.3,3297.3 			"/>
			<g class="st28">
				<linearGradient id="SVGID_25_" gradientUnits="userSpaceOnUse" x1="997.2942" y1="2754.2505" x2="1616.9866" y2="3231.719">
					<stop  offset="0" style="stop-color:#311944"/>
					<stop  offset="1" style="stop-color:#893976"/>
				</linearGradient>
				<path class="st29" d="M1547.5,2507.3l-269.1-2.8c-5,14.5-12.7,34.6-23.9,57.4c-122.4,248.7-406.7,280.8-401.5,322.2
					c7.8,61.9,632.3-27.8,647.9,55.3c7.5,40.1-121.7,132.7-258.1,169c-165.2,44-287.9-7.4-370.2,88.7c-28,32.7-40.3,70.7-46.3,96.3
					l845.1-83.9L1547.5,2507.3z"/>
			</g>
			<linearGradient id="SVGID_26_" gradientUnits="userSpaceOnUse" x1="837.6663" y1="2689.458" x2="1098.6157" y2="2679.3242">
				<stop  offset="9.996050e-02" style="stop-color:#311944"/>
				<stop  offset="0.6853" style="stop-color:#6D2F66"/>
				<stop  offset="1" style="stop-color:#893976"/>
			</linearGradient>
			<path class="st30" d="M746.6,2476.4c-9.5-0.1-22.7-1.4-37.1,6.9c-3.1,1.8-5.8,3.7-8.2,5.7l6.6-2.3c10.7-3,25.4,1.3,30.9,12.1
				c6.7,13.3,9.2,43.8,10.6,58.9c4.2,43,29.9,310.5,29.9,310.5c1.9,22.5,18.9,39.5,39,39l755.1-43.1c5.6-0.1,11.1-2,15.7-5.6
				c9.6-7.6,13.9-20.9,11.7-33.4l-37.2-309c-3.1-17.8-16.6-30.7-32.3-30.9L746.6,2476.4z"/>
			<linearGradient id="SVGID_27_" gradientUnits="userSpaceOnUse" x1="1243.8356" y1="3564.7773" x2="1153.2244" y2="2546.4878">
				<stop  offset="9.996050e-02" style="stop-color:#311944"/>
				<stop  offset="0.267" style="stop-color:#371B47"/>
				<stop  offset="0.4803" style="stop-color:#462150"/>
				<stop  offset="0.7186" style="stop-color:#612A5F"/>
				<stop  offset="0.9736" style="stop-color:#853774"/>
				<stop  offset="1" style="stop-color:#893976"/>
			</linearGradient>
			<path class="st31" d="M754.9,2476.5c-9.5-0.1-20.7-1.5-33.2,1.7c-3.4,0.9-8.8,2.5-11.2,4.5c0,0,26.6-6.1,36.6,16.3
				c6.1,13.6,9.2,43.8,10.6,58.9c4.2,43,29.9,310.4,29.9,310.4c1.9,22.5,18.9,39.5,39,39l762.9-20.1c5.6-0.1,11.1-2,15.7-5.6
				c9.6-7.6,13.9-20.9,11.7-33.4l-45.4-331.9c-3.1-17.8-16.6-30.7-32.3-30.9L754.9,2476.5z"/>
			<linearGradient id="SVGID_28_" gradientUnits="userSpaceOnUse" x1="1288.0062" y1="3800.9814" x2="1134.3241" y2="2396.179">
				<stop  offset="0" style="stop-color:#311944"/>
				<stop  offset="1" style="stop-color:#893976"/>
			</linearGradient>
			<path class="st32" d="M1616.9,2848.2l-45.4-331.9c-3.1-17.8-16.6-30.7-32.3-30.9l-784.3-8.9c-9.5-0.1-20.7-1.5-33.2,1.7
				c-3.4,0.9-8.8,2.5-11.2,4.5c0,0,26.6-6.1,36.6,16.3c1,2.1,1.8,4.7,2.7,7.6c76.5,3.8,152.6,2.4,228.3,8.1
				c148.3,10.9,296.7,12.4,433.6,73.5c43.5,19.4,73.3,88.2,61.5,119.8c-8.5,22.8-37.5,21-47.6,51c-10.7,31.6,14.9,53,4.2,75.2
				c-11.2,23.3-45.5,12.3-101,29.1c-30.7,9.3-54.3,22.9-69.1,32.6l330-8.7c5.6-0.1,11.1-2,15.7-5.6
				C1614.8,2873.9,1619.1,2860.7,1616.9,2848.2z"/>
			<g>
				<linearGradient id="SVGID_29_" gradientUnits="userSpaceOnUse" x1="1504.7" y1="3060.6931" x2="1041.2987" y2="2818.4607">
					<stop  offset="0" style="stop-color:#FFC444"/>
					<stop  offset="0.9964" style="stop-color:#F36F56"/>
				</linearGradient>
				<path class="st33" d="M1258,2951.1l-95.5,24.1l-10.1,0.9c-10.2,0.9-19-8-19.5-19.8l-4.2-111.7c-0.4-11.8,7.6-21.6,17.9-21.8
					l10.2-0.2l96.1,12.3c9.1-0.2,16.8-5.1,17.3,5.9l3.9,104.2C1274.4,2956,1267.1,2950.3,1258,2951.1z"/>
				<linearGradient id="SVGID_30_" gradientUnits="userSpaceOnUse" x1="1089.2635" y1="2855.7231" x2="1562.1995" y2="3024.96">
					<stop  offset="0" style="stop-color:#FFC444"/>
					<stop  offset="0.9964" style="stop-color:#F36F56"/>
				</linearGradient>
				<path class="st34" d="M1265.3,2966.4l-105.8,9.6c-10.2,0.9-19-8-19.4-19.8l-4.2-111.7c-0.4-11.8,7.6-21.6,17.9-21.8l106.2-1.8
					c9.1-0.2,16.9,8.7,17.3,19.8l3.9,104.2C1281.4,2955.9,1274.4,2965.6,1265.3,2966.4z"/>
			</g>
		</g>
		<g>
			<g>
				
					<linearGradient id="SVGID_31_" gradientUnits="userSpaceOnUse" x1="2150.0288" y1="1724.7041" x2="2897.6155" y2="2232.4985" gradientTransform="matrix(-1 0 0 1 3278.0178 0)">
					<stop  offset="0" style="stop-color:#311944"/>
					<stop  offset="1" style="stop-color:#6B3976"/>
				</linearGradient>
				<path class="st35" d="M1086.9,1994.8c14.1-9.1,1.2-35.6,0.5-92.6c-0.9-69.8,17.6-82.8,2.7-110.2c-18.2-33.5-64.1-47.4-94.4-48
					c-6.7-0.1-8.3-3.8-64.4,10.7c-101.1,26.2-126.4-1.9-171.7,26.2c-43.7,27.1-24.6,56.8-67.1,88.5c-68.9,51.5-141.3-4.2-190.5,38.9
					c-46.5,40.7-47.6,144.6,1.3,201.2c55.5,64.2,155.6,44.9,222.7,32.2c14.1-2.7,85.4-17.6,159.6-72.4
					c41.1-30.3,69.3-62.7,87.2-86.5c4.2-4.7,10.8-10.5,19.5-11.4c10.4-1.1,18.8,5.3,22.8,8C1036.3,1994,1073.1,2003.8,1086.9,1994.8
					z"/>
				
					<linearGradient id="SVGID_32_" gradientUnits="userSpaceOnUse" x1="2143.0923" y1="2036.4559" x2="2336.1606" y2="2566.5149" gradientTransform="matrix(-1 0 0 1 3371.6436 0)">
					<stop  offset="0" style="stop-color:#FFC444"/>
					<stop  offset="0.9964" style="stop-color:#F36F56"/>
				</linearGradient>
				<path class="st36" d="M1030.4,1956.5c18.1-16.5,82.6,15.3,125.4,57.4c50.2,49.5,46.4,89.7,90.2,151.2
					c21.8,30.6,59.2,71.7,125.4,107.8c-4.7,11.7-9.4,23.4-14.1,35.2c-32,1.9-94.9,0.8-153.5-37.5c-40.7-26.6-61.7-61.8-101.9-131.2
					C1061.5,2069.7,1007.8,1977.1,1030.4,1956.5z"/>
				
					<linearGradient id="SVGID_33_" gradientUnits="userSpaceOnUse" x1="825.601" y1="3749.5642" x2="935.4677" y2="3749.5642" gradientTransform="matrix(-0.831 -0.5562 -0.5562 0.831 4214.0654 279.3084)">
					<stop  offset="0" style="stop-color:#311944"/>
					<stop  offset="1" style="stop-color:#6B3976"/>
				</linearGradient>
				<path class="st37" d="M1425.3,2924.5l-20.6-43.7c-2.9-6.2-7.5-11.5-13.2-15.3l-10.2-6.8c0,0-24.3-0.6-28.1,14.7
					c-0.8,19.4,36.9,62.8,60.8,80.1c4,2.9,9.6,6.7,13.1,4.7C1433,2954.8,1428.9,2936.9,1425.3,2924.5z"/>
				
					<linearGradient id="SVGID_34_" gradientUnits="userSpaceOnUse" x1="1865.4926" y1="2960.3677" x2="2044.7759" y2="2422.5161" gradientTransform="matrix(-1 0 0 1 3278.0178 0)">
					<stop  offset="0" style="stop-color:#FFC444"/>
					<stop  offset="0.9964" style="stop-color:#F36F56"/>
				</linearGradient>
				<path class="st38" d="M1386.7,2834.9c-3.2,18.7,0.9,28.5,5.3,34c3.1,3.9,28.3,45.4,18,52.1c-4.7,3-36.7-36.8-39.8-42.8
					c-2.8-5.5-4.6-4.2-4.8-19.3c-0.1-9.9-2.1-17.9-3.7-22.9C1370,2835.7,1378.3,2835.3,1386.7,2834.9z"/>
				
					<linearGradient id="SVGID_35_" gradientUnits="userSpaceOnUse" x1="1835.4316" y1="2713.3813" x2="1897.0054" y2="2713.3813" gradientTransform="matrix(-1 0 0 1 3278.0178 0)">
					<stop  offset="0" style="stop-color:#311944"/>
					<stop  offset="1" style="stop-color:#6B3976"/>
				</linearGradient>
				<path class="st39" d="M1423.1,2686.4c0,0,22.8,27.2,19.1,56.9c-3.7,29.8-43.6-13.8-49.1-28.5c-5.6-14.7-12-35.7-12-35.7
					S1409,2661.8,1423.1,2686.4z"/>
				
					<linearGradient id="SVGID_36_" gradientUnits="userSpaceOnUse" x1="1799.7454" y1="2882.4521" x2="1900.2891" y2="2580.8203" gradientTransform="matrix(-1 0 0 1 3278.0178 0)">
					<stop  offset="0" style="stop-color:#FFC444"/>
					<stop  offset="0.9964" style="stop-color:#F36F56"/>
				</linearGradient>
				<path class="st40" d="M1414.4,2643.9c0,0-6.2,31.6,5.6,48.3c5.9,8.3,13.8,15.4,11.5,22.1c-1.6,4.5-7.5,7.8-12.5,7.3
					c-9.6-1-14.9-15.7-18.7-26.1c-5.5-15.3-8.6-48.1-8.6-48.1L1414.4,2643.9z"/>
				
					<linearGradient id="SVGID_37_" gradientUnits="userSpaceOnUse" x1="1923.634" y1="2374.2734" x2="1998.627" y2="2807.8269" gradientTransform="matrix(-1 0 0 1 3278.0178 0)">
					<stop  offset="0" style="stop-color:#AA80F9"/>
					<stop  offset="0.9964" style="stop-color:#6165D7"/>
				</linearGradient>
				<path class="st41" d="M1396.3,2670.6c7-2.5,14-5.1,21-7.6c10.9-24.9,24.2-65.9,19.8-115.7c-11.4-128-129.9-195.9-143-203.2
					c-32.3,16.2-64.9,39-66.1,67.8c-1.5,36.1,47.8,55.2,94,108.1C1349.7,2551.7,1379.4,2599,1396.3,2670.6z"/>
				
					<linearGradient id="SVGID_38_" gradientUnits="userSpaceOnUse" x1="2029.5416" y1="2888.0979" x2="2136.1729" y2="2550.6277" gradientTransform="matrix(-1 0 0 1 3278.0178 0)">
					<stop  offset="0" style="stop-color:#AA80F9"/>
					<stop  offset="0.9964" style="stop-color:#6165D7"/>
				</linearGradient>
				<path class="st42" d="M1388.8,2849.6c23.1-90.3,17.2-164.1,10.5-206.5c-10.1-64.2-30.6-194.8-117.8-243.4
					c-19-10.6-46.2-20.2-79.4-49.7c-27.7-24.7-45.3-50.6-55.9-68.9c-116.6-34.2-224.1-20.3-271.6,42.2c-5.5,7.2-19.2,22.9-21.9,46
					c-6,52.1,45.2,114.9,102.7,128c73.1,16.7,115.4-58.4,180.2-33.4c18.1,7,33.5,24.3,64.2,58.9c39.1,44,61,84.6,69.3,100.9
					c24.7,48.4,43.5,84.1,46.2,130.4c0.6,10.8,1,32.6,13.7,56.1c9.7,18,22.8,30.1,32.6,37.5
					C1370.7,2848.2,1379.7,2848.9,1388.8,2849.6z"/>
				
					<linearGradient id="SVGID_39_" gradientUnits="userSpaceOnUse" x1="2029.5509" y1="2888.1021" x2="2136.1824" y2="2550.6313" gradientTransform="matrix(-1 0 0 1 3278.0178 0)">
					<stop  offset="0" style="stop-color:#AA80F9"/>
					<stop  offset="0.9964" style="stop-color:#6165D7"/>
				</linearGradient>
				<path class="st43" d="M852.8,2369.1c2.7-23.1,16.4-38.8,21.9-46c47.4-62.5,155-76.4,271.6-42.2c10.6,18.3,28.2,44.2,55.9,68.9
					c33.2,29.6,60.4,39.1,79.4,49.7c53.2,29.7,81.6,90,97.9,147c-24.2-37.5-44.9-47.5-61-47.7c-23-0.3-33.2,19.4-60.6,16.7
					c-29.3-2.9-36-27.1-59.8-29.9c-7.1-0.8-15.9,0.3-26.4,5.9c-14-14.7-24.5-23.4-36-27.8c-64.7-25-107.1,50.1-180.2,33.4
					C898,2484,846.8,2421.3,852.8,2369.1z"/>
				
					<linearGradient id="SVGID_40_" gradientUnits="userSpaceOnUse" x1="2179.5957" y1="2330.5156" x2="2254.4158" y2="2763.0698" gradientTransform="matrix(-1 0 0 1 3278.0178 0)">
					<stop  offset="0" style="stop-color:#AA80F9"/>
					<stop  offset="0.9964" style="stop-color:#6165D7"/>
				</linearGradient>
				<path class="st44" d="M1328.4,2440c-13.2-0.7-33.5-1.1-58,1.3c-116.3,11.5-148.4,69-244.5,83.1c-22.7,3.3-124,18.1-167.9-40.4
					c-31.5-42-26.7-114.4,7.7-142.9c14.6-12.1,29-11.7,122.3-10.9c35.2,0.3,70.3,0.4,105.5,0.9c148.8,1.9,177.3-8.4,204.3,16.2
					C1310.4,2358.7,1328.9,2383.4,1328.4,2440z"/>
				<g>
					<g>
						
							<linearGradient id="SVGID_41_" gradientUnits="userSpaceOnUse" x1="2301.0781" y1="1978.9116" x2="2494.146" y2="2508.97" gradientTransform="matrix(-1 0 0 1 3371.6436 0)">
							<stop  offset="0" style="stop-color:#FFC444"/>
							<stop  offset="0.9964" style="stop-color:#F36F56"/>
						</linearGradient>
						<path class="st45" d="M1014.2,1962.6c0,0-117.5-34.3-169.2,24.3c-9.5,10.8-17,24.9-22.5,52.2c-27.8,139.1,77.5,222.6,36,296
							c-16.5,29.1-45.5,37.9-66.1,90.3c-3.5,8.9-16.1,40.9-4.5,51c10.2,8.9,27-9.9,56.8-6.3c31.6,3.8,38.9,28.1,60.2,24.6
							c13.8-2.3,19.8-14.1,40.2-43.6c29.5-42.7,44.3-64,54.9-71.5c41.8-29.5,74.1,9,121.7-20.3c17.2-10.6,81.1-92.9,62.3-70.3l0,0
							c-44.7-55.8-55.1-101.9-56.2-133.9c-1.2-35.1,8.9-51.1,0-92.6c0,0-10-46.3-46-86.1C1076.7,1970.8,1070.5,1964.8,1014.2,1962.6
							z"/>
					</g>
				</g>
				<g>
					
						<linearGradient id="SVGID_42_" gradientUnits="userSpaceOnUse" x1="-132.483" y1="2353.5688" x2="-124.8422" y2="2150.0435" gradientTransform="matrix(0.984 0.1784 -0.1784 0.984 1529.5815 -244.2395)">
						<stop  offset="0" style="stop-color:#FFC444"/>
						<stop  offset="0.9964" style="stop-color:#F36F56"/>
					</linearGradient>
					<path class="st46" d="M976.5,1886.4c1.6,7.4,9.7,47.3-6.6,57.6c-3.5,2.2-10.3,3.5-23.9,6c-8.9,1.7-16.4,2.7-21.6,3.3
						c0.8,6.7,3,17.6,10.7,27.5c21.6,27.8,65,20.6,71.2,19.4c21.8-4,43.3-10.7,48.5-14.8c7.9-6.3,14.1-11,17.8-15.8
						c-8.4-4.1-25.5-14.8-36.9-18.4c-8.5-2.6-16.6-4.5-23.9-5.9c-1.2-7.7-2.4-15.4-3.6-23.1C997.6,1910.4,987,1898.4,976.5,1886.4z"
						/>
					
						<linearGradient id="SVGID_43_" gradientUnits="userSpaceOnUse" x1="-134.8674" y1="2173.896" x2="-138.138" y2="2437.4077" gradientTransform="matrix(0.984 0.1784 -0.1784 0.984 1529.5815 -244.2395)">
						<stop  offset="0" style="stop-color:#FFC444"/>
						<stop  offset="0.9964" style="stop-color:#F36F56"/>
					</linearGradient>
					<path class="st47" d="M975.7,1906.3c0,0,2.9,29.2,31.4,34.4c25.4,4.6,44.6-56.9,31.6-72.8c-4.3-5.3-15.1-10.3-24.4-10.1
						c-6.5,0.2-28.6,8.6-31.7,30.7c-4.4-4.6-9.9-6-12.6-4c-3.4,2.5-1.6,9.6-1.2,11.2C970.3,1901.3,974,1904.8,975.7,1906.3z"/>
				</g>
				
					<linearGradient id="SVGID_44_" gradientUnits="userSpaceOnUse" x1="2184.1763" y1="2316.5947" x2="2588.5378" y2="2316.5947" gradientTransform="matrix(-1 0 0 1 3371.6436 0)">
					<stop  offset="0" style="stop-color:#FFC444"/>
					<stop  offset="0.9964" style="stop-color:#F36F56"/>
				</linearGradient>
				<path class="st48" d="M1184,2289c-5.4-6.7-10.2-13.3-14.7-19.7c-24.7-8.3-46-11.3-63.2-12.2c-38.8-1.9-60.1,7.3-86.6-8.7
					c-30-18.1-24.7-43.1-53.7-57.1c-30.5-14.7-52,1.9-81.4-3.5c-17.7-3.2-39.3-15.1-61.3-49.6c16.9,83.2,65.9,142.8,35.3,196.8
					c-16.5,29.1-45.5,37.9-66.1,90.3c-3.5,8.9-16.1,40.9-4.5,51c10.2,8.9,27-9.9,56.8-6.3c31.6,3.8,38.9,28.1,60.2,24.6
					c13.8-2.3,19.8-14.1,40.2-43.6c29.5-42.7,44.3-64,54.9-71.5c41.8-29.5,74.1,9,121.7-20.3C1138.9,2348.7,1202.8,2266.4,1184,2289
					z"/>
			</g>
			<g>
				
					<linearGradient id="SVGID_45_" gradientUnits="userSpaceOnUse" x1="3561.4634" y1="2324.8652" x2="3851.9409" y2="2324.8652" gradientTransform="matrix(-1 0 0 1 4788.0112 0)">
					<stop  offset="0" style="stop-color:#40447E"/>
					<stop  offset="0.9964" style="stop-color:#3C3B6B"/>
				</linearGradient>
				<path class="st49" d="M1219.4,2303.3l-265.8,12.9c-3.7,0.2-7,2.1-8.9,5.2l-7.4,11.8c-3.7,5.9,0.7,13.5,7.7,13.2l281.5-10.7
					L1219.4,2303.3z"/>
				
					<linearGradient id="SVGID_46_" gradientUnits="userSpaceOnUse" x1="3375.7031" y1="2141.6309" x2="3566.1479" y2="2330.5522" gradientTransform="matrix(-1 0 0 1 4788.0112 0)">
					<stop  offset="0" style="stop-color:#40447E"/>
					<stop  offset="0.9964" style="stop-color:#3C3B6B"/>
				</linearGradient>
				<path class="st50" d="M1495.8,2155.3l-274.6,5.3c-8.1,0.2-15.6,4.6-19.6,11.6l-95.1,167.3l290-11.6c8-0.3,15.2-4.6,19.3-11.5
					l88.1-147.2C1507.8,2163.1,1503.1,2155.1,1495.8,2155.3z"/>
				
					<linearGradient id="SVGID_47_" gradientUnits="userSpaceOnUse" x1="3375.7036" y1="2141.6309" x2="3566.1487" y2="2330.5525" gradientTransform="matrix(-1 0 0 1 4788.0112 0)">
					<stop  offset="0" style="stop-color:#40447E"/>
					<stop  offset="0.9964" style="stop-color:#3C3B6B"/>
				</linearGradient>
				<path class="st51" d="M1201.7,2172.3c4-7.1,11.5-11.5,19.6-11.6l6-0.1c0.9,8.9,3.6,17,9,23.5c16.9,20.4,45.1,7.8,66,29.5
					c23,23.8,1.8,52,22.3,74.1c21.7,23.3,56.7,4.3,97,19.2l-5.8,9.7c-4.1,6.8-11.4,11.1-19.3,11.5l-290,11.6L1201.7,2172.3z"/>
			</g>
			<g>
				
					<linearGradient id="SVGID_48_" gradientUnits="userSpaceOnUse" x1="2382.4011" y1="2290.9509" x2="3003.7275" y2="1764.4025" gradientTransform="matrix(-1 0 0 1 3371.6436 0)">
					<stop  offset="0" style="stop-color:#FFC444"/>
					<stop  offset="0.9964" style="stop-color:#F36F56"/>
				</linearGradient>
				<path class="st52" d="M975.3,2294.4c3.5-9.1,6.9-18.3,10.4-27.4c-38.2-10.5-91.1-26-145.3-45.3c-8.5-3-18.6-6.8-21.9-15.7
					c-9.3-25.1,49.7-51.1,72.6-105.8c21.2-50.6,9.5-120.9-15.1-129.2c-51.2-17.3-232.7,208.7-167.9,303.9
					C744.8,2328.7,857.8,2337.3,975.3,2294.4z"/>
			</g>
			
				<linearGradient id="SVGID_49_" gradientUnits="userSpaceOnUse" x1="-2003.0955" y1="2267.5864" x2="-2099.6553" y2="2358.5818" gradientTransform="matrix(1 0 0 1 3047.7324 0)">
				<stop  offset="0" style="stop-color:#FFC444"/>
				<stop  offset="0.9964" style="stop-color:#F36F56"/>
			</linearGradient>
			<path class="st53" d="M985.7,2267c24-12.7,52.7,0.3,54.6,1.2c5.3,2.5,12.9,6.9,20.7,14.8c0.9,1.2,11.3,15.6,7.5,20.2
				c-3,3.7-14.8,0.6-29-8.2c-5.9-0.8-14.8-1.6-25.3-0.6c-19.4,1.8-28.3,7.9-35.4,2.6c-5.2-3.9-6.9-12.1-5.1-18.2
				C975.7,2272.4,981.6,2269.2,985.7,2267z"/>
		</g>
		<g>
			
				<linearGradient id="SVGID_50_" gradientUnits="userSpaceOnUse" x1="3299.3213" y1="2959.637" x2="3321.6958" y2="3244.4033" gradientTransform="matrix(1 -2.400000e-03 2.400000e-03 1 -794.8005 3.3687)">
				<stop  offset="0" style="stop-color:#444B8C"/>
				<stop  offset="0.9964" style="stop-color:#3E4177"/>
			</linearGradient>
			<path class="st54" d="M2555.6,3097c0,0-90,41.2-91.4,47.7c-1.5,6.5,57.9-2.3,82.2-1.4c24.2,0.9,44.2-6.3,42-16.6
				c-2.2-10.3-10.8-36.1-10.8-36.1L2555.6,3097z"/>
			
				<linearGradient id="SVGID_51_" gradientUnits="userSpaceOnUse" x1="3357.0828" y1="3118.176" x2="3353.0149" y2="2823.2488" gradientTransform="matrix(1 -2.400000e-03 2.400000e-03 1 -794.8005 3.3687)">
				<stop  offset="0" style="stop-color:#AB316D"/>
				<stop  offset="1" style="stop-color:#792D3D"/>
			</linearGradient>
			<path class="st55" d="M2552.2,3063.8l5.6,40.5c0,0,14.3,5,23.8-1l4-44.5L2552.2,3063.8z"/>
			
				<linearGradient id="SVGID_52_" gradientUnits="userSpaceOnUse" x1="3722.1423" y1="2926.4211" x2="3744.5161" y2="3211.177" gradientTransform="matrix(1 -2.400000e-03 2.400000e-03 1 -794.8005 3.3687)">
				<stop  offset="0" style="stop-color:#444B8C"/>
				<stop  offset="0.9964" style="stop-color:#3E4177"/>
			</linearGradient>
			<path class="st56" d="M2976.4,3063.7l10.5,16.8c2.9,4.7,3.8,10.4,2.4,15.7c-3.6,14-10.9,41.3-14.1,48.4
				c-4.3,9.7-62.6,15.6-62.6,15.6s-5.2-7.3,6.9-16.2c12.1-8.9,19.9-10.3,24.1-23.3c4.2-13,7-49.9,7-49.9L2976.4,3063.7z"/>
			
				<linearGradient id="SVGID_53_" gradientUnits="userSpaceOnUse" x1="3744.5791" y1="3112.8313" x2="3740.5112" y2="2817.895" gradientTransform="matrix(1 -2.400000e-03 2.400000e-03 1 -794.8005 3.3687)">
				<stop  offset="0" style="stop-color:#AB316D"/>
				<stop  offset="1" style="stop-color:#792D3D"/>
			</linearGradient>
			<path class="st57" d="M2932.7,3021.1c3.8,3,22.7,59.8,22.7,59.8s6.1,7.7,17.6-3.7c11.5-11.5,5.2-5.1,5.2-5.1l-2.3-55.9
				L2932.7,3021.1z"/>
			
				<linearGradient id="SVGID_54_" gradientUnits="userSpaceOnUse" x1="3286.6951" y1="2640.3977" x2="3504.7581" y2="2640.3977" gradientTransform="matrix(1 -2.400000e-03 2.400000e-03 1 -794.8005 3.3687)">
				<stop  offset="0" style="stop-color:#444B8C"/>
				<stop  offset="0.9964" style="stop-color:#3E4177"/>
			</linearGradient>
			<path class="st58" d="M2500.7,2249.2c-4.5,121-4.3,252.4,3,392.8c8.2,158.1,24.3,304.2,44.5,436.6c7.4,0.2,15.1,0.2,23.2,0
				c5.5-0.2,10.8-0.4,15.9-0.8c10.2-27.5,22.3-63.6,33.1-106.8c11.4-45.4,18.2-86.1,23-125c17-137-3.3-149,10.5-250.5
				c12.2-90,30-93.5,50.5-221.2c22.2-138.6,5.4-159.3-2.8-166.8C2666.7,2175.5,2585,2197.4,2500.7,2249.2z"/>
			
				<linearGradient id="SVGID_55_" gradientUnits="userSpaceOnUse" x1="3286.6946" y1="2640.407" x2="3504.7566" y2="2640.407" gradientTransform="matrix(1 -2.400000e-03 2.400000e-03 1 -794.8005 3.3687)">
				<stop  offset="0" style="stop-color:#444B8C"/>
				<stop  offset="0.9964" style="stop-color:#3E4177"/>
			</linearGradient>
			<path class="st59" d="M2701.5,2207.3c-33.3-30.4-109.1-11.8-189.2,35c92.5,99.4,102.7,164,91.7,206
				c-12.4,47.4-50.3,61.2-50.1,113c0.3,63.7,57.9,80.4,56.8,147.8c-0.7,44.6-26,44.2-31.8,99.2c-6.9,65.2,26.2,87.5,15.6,135.7
				c-4.5,20.7-17.6,47.9-54.9,75.9c2.7,19.8,5.6,39.4,8.5,58.6c7.4,0.2,15.1,0.2,23.2,0c5.5-0.2,10.8-0.4,15.9-0.8
				c10.2-27.5,22.3-63.6,33.1-106.8c11.4-45.4,18.2-86.1,23-125c17-137-3.3-149,10.5-250.5c12.2-90,30-93.5,50.5-221.2
				C2726.6,2235.6,2709.7,2214.8,2701.5,2207.3z"/>
			
				<linearGradient id="SVGID_56_" gradientUnits="userSpaceOnUse" x1="3347.2336" y1="2618.9021" x2="3786.2195" y2="2618.9021" gradientTransform="matrix(1 -2.400000e-03 2.400000e-03 1 -794.8005 3.3687)">
				<stop  offset="0" style="stop-color:#444B8C"/>
				<stop  offset="0.9964" style="stop-color:#3E4177"/>
			</linearGradient>
			<path class="st60" d="M2557.8,2247c79.7,116,165.7,260.4,242.7,433.3c58.2,130.7,100.5,253.4,131.6,362.8
				c4.2,1.9,14,5.7,26.6,4.1c17.1-2.3,27.4-13.3,30.1-16.3c12.4-78.5,10.8-144.9,6.4-192.9c-2.8-30.7-7.7-81.8-27.5-144.9
				c-22.1-70.7-37.2-74.6-66-149.3c-29.9-77.6-22.7-97-51.4-194.1c-11.8-39.9-31.5-99.3-63.9-170.2
				C2710.3,2201.9,2634.1,2224.5,2557.8,2247z"/>
			<linearGradient id="SVGID_57_" gradientUnits="userSpaceOnUse" x1="2910.2776" y1="1613.174" x2="2415.6665" y2="2425.2227">
				<stop  offset="0" style="stop-color:#AA80F9"/>
				<stop  offset="0.9964" style="stop-color:#6165D7"/>
			</linearGradient>
			<path class="st61" d="M3097.1,1823c-0.9,24.8-15.1,38.8-35.5,65.5c-67.4,87.9-136.3,226.9-153.1,353.6
				c-7.2,54.6-5,108.6-45.8,153.5c-7.8,8.6-32.5,35.8-56.9,30.8c-29-6-26.4-51.4-65-70.3c-12.7-6.2-17-3.3-72.5-2.5
				c-34.7,0.5-69.7,0.9-107.3-3.4c-35.6-4-86.8-9.8-92.2-32.3c-2.1-8.9,4-16.8,8.9-24.4c21.7-33.4,18.7-56.9,30.3-107.1
				c21.8-93.8,70.6-176.7,70-186.4c0-0.1,0-0.2-0.1-0.3c0-0.1,0-0.2-0.1-0.3c0-0.1-0.1-0.1-0.1-0.2c0-0.1-0.1-0.1-0.2-0.1
				c-2.5-1.3-13,15.4-22.4,29.2c-0.7,1.1-1.5,2.2-2.3,3.2c-36.3,50-84.1,47.9-142.5,36.3c-18.8-3.7-38.7-8.4-59.6-12.7
				c-37.4-7.6-80.6-65.6-81.3-93.9c-0.8-29.6,55-13.8,107.1-47.7c151.7-98.7,79.6-148.2,219.7-212.3c34.8-15.9,68.9-21.9,117.8-30.4
				c20.2-3.6,39-6,56.6-7.6c44.2-4.2,91.3-5,117.6-2.4C2984.4,1670,3099.7,1750.3,3097.1,1823z"/>
			<linearGradient id="SVGID_58_" gradientUnits="userSpaceOnUse" x1="2823.6072" y1="1611.1597" x2="2777.022" y2="2022.1053">
				<stop  offset="0" style="stop-color:#AB316D"/>
				<stop  offset="1" style="stop-color:#792D3D"/>
			</linearGradient>
			<path class="st62" d="M2808.2,1585.2c0,0,6,33.6,19.9,57.5c12.5,21.6,64.3,29.4,75.1,33.1c10.8,3.8-16.3,22.5-45,29.4
				c-28.8,6.8-112.9,11.3-129.4,2.2c-16.5-9.1,10.7-11.8,30.5-22.2c19.8-10.4,26.4-52.7,20.3-70.7
				C2773.4,1596.5,2808.2,1585.2,2808.2,1585.2z"/>
			<g>
				<path class="st63" d="M2753.5,1575.5c-20.9-14.9-26.7-55.3-15.1-64.3c3.3-2.6,6.5-1.4,53.6,17.5c23.4,9.4,34.9,14.4,38.7,24.7
					c2.3,6.3,1.9,14.8-0.6,21.5c-1.3,3.5-3.9,7.8-9.6,16c-5.1,7.3-4.7,7-6.3,9.2c-3.7,5.1-10.9,13.6-24.1,23.6
					c-0.7-3.7-1.9-8.3-3.8-13.3c-0.7-1.9-3.8-9.5-8.5-15.9C2769.6,1583.5,2760.3,1580.4,2753.5,1575.5z"/>
				<linearGradient id="SVGID_59_" gradientUnits="userSpaceOnUse" x1="2781.6797" y1="1563.8613" x2="2818.282" y2="1866.663">
					<stop  offset="0" style="stop-color:#AB316D"/>
					<stop  offset="1" style="stop-color:#792D3D"/>
				</linearGradient>
				<path class="st64" d="M2807,1613.9c0,0-13.7,20.3-39,17.6c-22.7-2.5-23.8-53.6-8.8-63.7c5-3.4,14.8-4.5,22.5-1.9
					c4.6,1.5,6.1,3.5,13.7,5.8c7,2.1,9,1.4,11.1,3.3c2.6,2.4,4.3,7.9-0.8,22.6c4.5-4.2,9.8-5.7,13.4-3.8c0.6,0.3,2.1,1.4,2.9,3.1
					C2825,1602.9,2819.3,1610.1,2807,1613.9z"/>
			</g>
			<linearGradient id="SVGID_60_" gradientUnits="userSpaceOnUse" x1="2410.5247" y1="2004.7584" x2="2600.9917" y2="2004.7584">
				<stop  offset="0" style="stop-color:#AA80F9"/>
				<stop  offset="0.9964" style="stop-color:#6165D7"/>
			</linearGradient>
			<path class="st65" d="M2601,1964.2c-7.6,11.9-15.2,23.9-22.8,35.8c0,0,0,0,0,0c0-0.1,0-0.2,0-0.3c0-0.1,0-0.2-0.1-0.3
				c0-0.1-0.1-0.1-0.1-0.2c0-0.1-0.1-0.1-0.2-0.1c-2.5-1.3-13,15.4-22.4,29.2c-0.7,1.1-1.5,2.2-2.3,3.2
				c-36.3,50-84.1,47.9-142.5,36.3c27.6-5.8,45.5-11.3,66-27.8c52.1-42,60-105.9,90.3-105.1
				C2581.1,1935.2,2592.7,1949.8,2601,1964.2z"/>
			<linearGradient id="SVGID_61_" gradientUnits="userSpaceOnUse" x1="3191.5847" y1="1784.5033" x2="2696.9702" y2="2596.5574">
				<stop  offset="0" style="stop-color:#AA80F9"/>
				<stop  offset="0.9964" style="stop-color:#6165D7"/>
			</linearGradient>
			<path class="st66" d="M3023.1,2322.5c38.4,3.4,124.7,5,185.8-51.5c101.7-94.1,51.2-273.1,15.8-350.1
				c-40.6-88.3-105.2-137.7-144.4-167.7c-48.7-37.3-78.4-60-114.2-54.9c-92.5,13.2-156.5,202.7-105.8,257
				c16.6,17.8,33.1,7.7,81.2,23c15.7,5,132.6,42.2,152.9,128.3c14.2,60.3-22,130.8-86.6,178.2
				C3013,2297.3,3018,2309.9,3023.1,2322.5z"/>
			<linearGradient id="SVGID_62_" gradientUnits="userSpaceOnUse" x1="2472.3936" y1="2152.9919" x2="3196.9504" y2="2152.9919">
				<stop  offset="0" style="stop-color:#AA80F9"/>
				<stop  offset="0.9964" style="stop-color:#6165D7"/>
			</linearGradient>
			<path class="st67" d="M2593.1,2291.3c43.4-27.4,49.9-55.3,98.5-74.1c63.2-24.4,93.5,6.6,124.9-18.4
				c37.3-29.8,4.3-81.7,32.2-171.8c4.7-15.3,40.7-131.5,123.2-146.3c38.5-6.9,89.3,7.8,108.9,40.4c15.3,25.5,1,44.5,19.7,72.7
				c18.6,28.2,40.9,21.3,64.6,44.8c37.7,37.3,43.5,115.9,9.4,160.4c-15.9,20.7-36.5,28.9-75.3,44.4c-23.7,9.4-45.7,15.3-64.7,19
				c47.5-45.6,72.2-104.4,60-155.8c-12.7-53.7-62.9-88.4-102.7-108.1c-39.8,75-72.4,161.9-83.2,243.7c-7.2,54.5-5,108.6-45.8,153.5
				c-7.8,8.6-32.6,35.8-56.9,30.8c-29-6-26.4-51.4-65-70.3c-12.7-6.2-17-3.3-72.5-2.5c-34.6,0.5-69.7,0.9-107.2-3.3
				c-31.6-3.6-75.6-8.6-88.8-25.5C2529.5,2323.2,2567.6,2307.3,2593.1,2291.3z"/>
			<g>
				
					<linearGradient id="SVGID_63_" gradientUnits="userSpaceOnUse" x1="2547.3462" y1="1930.0695" x2="3446.8022" y2="1930.0695" gradientTransform="matrix(0.9693 0.2458 -0.2458 0.9693 202.4779 -463.0777)">
					<stop  offset="0" style="stop-color:#444B8C"/>
					<stop  offset="0.9964" style="stop-color:#26264F"/>
				</linearGradient>
				<path class="st68" d="M3026.7,2395.3l7.6-11.6c12.1-18.6,6.2-43.1-13.1-54.8L2265,1871.4l-46.4,78.3l751.7,457.9
					C2989.4,2419.3,3014.7,2413.8,3026.7,2395.3z"/>
				
					<linearGradient id="SVGID_64_" gradientUnits="userSpaceOnUse" x1="1724.8553" y1="1673.9904" x2="2652.9226" y2="1673.9904" gradientTransform="matrix(0.9693 0.2458 -0.2458 0.9693 202.4779 -463.0777)">
					<stop  offset="0" style="stop-color:#444B8C"/>
					<stop  offset="0.9964" style="stop-color:#26264F"/>
				</linearGradient>
				<path class="st69" d="M1508.8,1464.3c125.4-231.6,408.8-318.6,633.9-187.1c229.2,133.9,302.9,437.7,163.7,671.2
					c-135.9,228-421.2,297.3-636.7,161.7C1457.9,1976.9,1386.2,1690.7,1508.8,1464.3z M2240.5,1908.5
					c115.7-195.6,54-449.5-137.3-562c-188.4-110.7-426.5-38.9-532.5,155.4c-104,190.6-43.7,432,135.3,544
					C1887.6,2159.6,2127.1,2100.3,2240.5,1908.5z"/>
				<path class="st70" d="M2265,1871.4l96.4,58.3c-1.3,35.1,7.8,57.8,18.9,73c41.7,57.1,124.3,27.3,209.6,103.5
					c42.8,38.3,29.3,52.3,71,81.9c68.9,49.1,114.4,16.8,175.2,61c61.5,44.7,53.3,105.5,92.6,113.2c16.8,3.3,41.3-3.4,76.7-43.1
					l15.8,9.6c19.3,11.7,25.1,36.2,13.1,54.8l-7.6,11.6c-12,18.5-37.3,24-56.5,12.3l-751.7-457.9L2265,1871.4z"/>
				
					<linearGradient id="SVGID_65_" gradientUnits="userSpaceOnUse" x1="2503.6584" y1="2046.5006" x2="2039.8341" y2="1527.176" gradientTransform="matrix(0.9693 0.2458 -0.2458 0.9693 202.4779 -463.0777)">
					<stop  offset="0" style="stop-color:#444B8C"/>
					<stop  offset="0.9964" style="stop-color:#26264F"/>
				</linearGradient>
				<path class="st71" d="M1487.5,1452.8c125.4-231.6,408.8-318.6,633.9-187.1c229.2,133.9,302.9,437.7,163.7,671.2
					c-135.9,228-421.2,297.3-636.7,161.7C1436.6,1965.4,1364.9,1679.2,1487.5,1452.8z M2219.3,1897c115.7-195.6,54-449.5-137.3-562
					c-188.4-110.7-426.5-38.9-532.5,155.4c-104,190.6-43.7,432,135.3,544C1866.4,2148.1,2105.9,2088.8,2219.3,1897z"/>
				
					<linearGradient id="SVGID_66_" gradientUnits="userSpaceOnUse" x1="1819.3837" y1="1288.948" x2="2448.407" y2="1981.4026" gradientTransform="matrix(0.9693 0.2458 -0.2458 0.9693 202.4779 -463.0777)">
					<stop  offset="0" style="stop-color:#444B8C"/>
					<stop  offset="0.9964" style="stop-color:#26264F"/>
				</linearGradient>
				<path class="st72" d="M1509.4,1466.1c118.6-218.4,385.9-300,598-175.8c215.7,126.3,285.2,412.4,154.3,632.5
					c-127.9,215.2-397,281-600.6,153.2C1461,1950.3,1393.4,1679.9,1509.4,1466.1z M2219.3,1897c115.7-195.6,54-449.5-137.3-562
					c-188.4-110.7-426.5-38.9-532.5,155.4c-104,190.6-43.7,432,135.3,544C1866.4,2148.1,2105.9,2088.8,2219.3,1897z"/>
			</g>
			
				<linearGradient id="SVGID_67_" gradientUnits="userSpaceOnUse" x1="-5543.8145" y1="592.3032" x2="-5526.2329" y2="492.7852" gradientTransform="matrix(-0.8553 -0.5182 -0.5182 0.8553 -1479.6936 -1003.974)">
				<stop  offset="0" style="stop-color:#AB316D"/>
				<stop  offset="1" style="stop-color:#792D3D"/>
			</linearGradient>
			<path class="st73" d="M3019.8,2314.4l-8.5-21.2c0,0-13.9,0.8-25.4-7.4c-6.2-4.5-17.3-5.8-20.5-4.9c-3.2,0.9-15.4,0.4-1.5,7
				c13.8,6.6,13.7,11.5,8,16.9c-5.8,5.4-27.7,17.1-35.6,17.6c-7.9,0.6,6.4,12.8,14.4,14.4c8,1.6,21,3.5,37.2-6
				C2993.7,2327.3,3019.8,2314.4,3019.8,2314.4z"/>
			
				<linearGradient id="SVGID_68_" gradientUnits="userSpaceOnUse" x1="6248.8281" y1="488.2139" x2="6328.2539" y2="488.2139" gradientTransform="matrix(0.6638 0.748 -0.748 0.6638 -1469.6499 -3004.134)">
				<stop  offset="0" style="stop-color:#AB316D"/>
				<stop  offset="1" style="stop-color:#792D3D"/>
			</linearGradient>
			<path class="st74" d="M2384.4,2037c0,0-33.1-14-50.7-29c-17.6-15-34.7-6.6-35.5,2.7c-0.8,9.2,28.9,31.6,42.2,36.2
				C2353.6,2051.5,2384.4,2037,2384.4,2037z"/>
		</g>
	</g>
</g>
</svg>
